<svg width="20" height="21" viewBox="0 0 20 21" fill="none" xmlns="http://www.w3.org/2000/svg">
<path d="M14.542 19.4584C13.6003 19.4584 12.6087 19.2334 11.5837 18.8001C10.5837 18.3751 9.57533 17.7917 8.59199 17.0834C7.61699 16.3667 6.67533 15.5667 5.78366 14.6917C4.90033 13.8001 4.10033 12.8584 3.39199 11.8917C2.67533 10.8917 2.10033 9.89175 1.69199 8.92508C1.25866 7.89175 1.04199 6.89175 1.04199 5.95008C1.04199 5.30008 1.15866 4.68341 1.38366 4.10841C1.61699 3.51675 1.99199 2.96675 2.50033 2.49175C3.14199 1.85841 3.87533 1.54175 4.65866 1.54175C4.98366 1.54175 5.31699 1.61675 5.60033 1.75008C5.92533 1.90008 6.20033 2.12508 6.40033 2.42508L8.33366 5.15008C8.50866 5.39175 8.64199 5.62508 8.73366 5.85841C8.84199 6.10841 8.90033 6.35842 8.90033 6.60008C8.90033 6.91675 8.80866 7.22508 8.63366 7.51675C8.50866 7.74175 8.31699 7.98342 8.07533 8.22508L7.50866 8.81675C7.51699 8.84175 7.52533 8.85842 7.53366 8.87508C7.63366 9.05008 7.83366 9.35008 8.21699 9.80008C8.62533 10.2667 9.00866 10.6917 9.39199 11.0834C9.88366 11.5667 10.292 11.9501 10.6753 12.2667C11.1503 12.6667 11.4587 12.8667 11.642 12.9584L11.6253 13.0001L12.2337 12.4001C12.492 12.1417 12.742 11.9501 12.9837 11.8251C13.442 11.5417 14.0253 11.4917 14.6087 11.7334C14.8253 11.8251 15.0587 11.9501 15.3087 12.1251L18.0753 14.0917C18.3837 14.3001 18.6087 14.5667 18.742 14.8834C18.867 15.2001 18.9253 15.4917 18.9253 15.7834C18.9253 16.1834 18.8337 16.5834 18.6587 16.9584C18.4837 17.3334 18.267 17.6584 17.992 17.9584C17.517 18.4834 17.0003 18.8584 16.4003 19.1001C15.8253 19.3334 15.2003 19.4584 14.542 19.4584ZM4.65866 2.79175C4.20033 2.79175 3.77533 2.99175 3.36699 3.39175C2.98366 3.75008 2.71699 4.14175 2.55033 4.56675C2.37533 5.00008 2.29199 5.45841 2.29199 5.95008C2.29199 6.72508 2.47533 7.56675 2.84199 8.43342C3.21699 9.31675 3.74199 10.2334 4.40866 11.1501C5.07533 12.0667 5.83366 12.9584 6.66699 13.8001C7.50033 14.6251 8.40033 15.3917 9.32533 16.0667C10.2253 16.7251 11.1503 17.2584 12.067 17.6417C13.492 18.2501 14.8253 18.3917 15.9253 17.9334C16.3503 17.7584 16.7253 17.4917 17.067 17.1084C17.2587 16.9001 17.4087 16.6751 17.5337 16.4084C17.6337 16.2001 17.6837 15.9834 17.6837 15.7667C17.6837 15.6334 17.6587 15.5001 17.592 15.3501C17.567 15.3001 17.517 15.2084 17.3587 15.1001L14.592 13.1334C14.4253 13.0167 14.2753 12.9334 14.1337 12.8751C13.9503 12.8001 13.8753 12.7251 13.592 12.9001C13.4253 12.9834 13.2753 13.1084 13.1087 13.2751L12.4753 13.9001C12.1503 14.2167 11.6503 14.2917 11.267 14.1501L11.042 14.0501C10.7003 13.8667 10.3003 13.5834 9.85866 13.2084C9.45866 12.8667 9.02533 12.4667 8.50033 11.9501C8.09199 11.5334 7.68366 11.0917 7.25866 10.6001C6.86699 10.1417 6.58366 9.75008 6.40866 9.42508L6.30866 9.17508C6.25866 8.98342 6.24199 8.87508 6.24199 8.75841C6.24199 8.45842 6.35033 8.19175 6.55866 7.98341L7.18366 7.33342C7.35033 7.16675 7.47533 7.00841 7.55866 6.86675C7.62533 6.75841 7.65033 6.66675 7.65033 6.58342C7.65033 6.51675 7.62533 6.41675 7.58366 6.31675C7.52533 6.18341 7.43366 6.03341 7.31699 5.87508L5.38366 3.14175C5.30033 3.02508 5.20033 2.94175 5.07533 2.88341C4.94199 2.82508 4.80033 2.79175 4.65866 2.79175ZM11.6253 13.0084L11.492 13.5751L11.717 12.9917C11.6753 12.9834 11.642 12.9917 11.6253 13.0084Z" fill="#292D32"/>
</svg>
