<svg width="20" height="20" viewBox="0 0 20 20" fill="none" xmlns="http://www.w3.org/2000/svg">
<path d="M12.7164 18.5416H7.28307C3.19141 18.5416 1.44141 16.7916 1.44141 12.6999V12.5916C1.44141 8.89161 2.89974 7.10827 6.16641 6.79994C6.49974 6.77494 6.81641 7.02494 6.84974 7.36661C6.88307 7.70827 6.63307 8.01661 6.28307 8.04994C3.66641 8.29161 2.69141 9.52494 2.69141 12.5999V12.7083C2.69141 16.0999 3.89141 17.2999 7.28307 17.2999H12.7164C16.1081 17.2999 17.3081 16.0999 17.3081 12.7083V12.5999C17.3081 9.50827 16.3164 8.27494 13.6497 8.04994C13.3081 8.01661 13.0497 7.71661 13.0831 7.37494C13.1164 7.03327 13.4081 6.77494 13.7581 6.80827C17.0747 7.09161 18.5581 8.88327 18.5581 12.6083V12.7166C18.5581 16.7916 16.8081 18.5416 12.7164 18.5416Z" fill="#FFFFFF"/>
<path d="M10 13.025C9.65833 13.025 9.375 12.7416 9.375 12.4V1.66663C9.375 1.32496 9.65833 1.04163 10 1.04163C10.3417 1.04163 10.625 1.32496 10.625 1.66663V12.4C10.625 12.75 10.3417 13.025 10 13.025Z" fill="white"/>
<path d="M10.0005 13.9583C9.84219 13.9583 9.68385 13.9 9.55885 13.775L6.76719 10.9833C6.52552 10.7416 6.52552 10.3416 6.76719 10.1C7.00885 9.85828 7.40885 9.85828 7.65052 10.1L10.0005 12.45L12.3505 10.1C12.5922 9.85828 12.9922 9.85828 13.2339 10.1C13.4755 10.3416 13.4755 10.7416 13.2339 10.9833L10.4422 13.775C10.3172 13.9 10.1589 13.9583 10.0005 13.9583Z" fill="#FFFFFF"/>
</svg>
