<svg width="20" height="20" viewBox="0 0 20 20" fill="none" xmlns="http://www.w3.org/2000/svg">
<path d="M10.8339 9.7917C10.6755 9.7917 10.5172 9.73337 10.3922 9.60837C10.1505 9.3667 10.1505 8.9667 10.3922 8.72503L17.2255 1.8917C17.4672 1.65003 17.8672 1.65003 18.1089 1.8917C18.3505 2.13337 18.3505 2.53337 18.1089 2.77503L11.2755 9.60837C11.1505 9.73337 10.9922 9.7917 10.8339 9.7917Z" fill="white"/>
<path d="M18.334 6.29163C17.9923 6.29163 17.709 6.00829 17.709 5.66663V2.29163H14.334C13.9923 2.29163 13.709 2.00829 13.709 1.66663C13.709 1.32496 13.9923 1.04163 14.334 1.04163H18.334C18.6757 1.04163 18.959 1.32496 18.959 1.66663V5.66663C18.959 6.00829 18.6757 6.29163 18.334 6.29163Z" fill="#FFFFFF"/>
<path d="M12.4993 18.9583H7.49935C2.97435 18.9583 1.04102 17.025 1.04102 12.5V7.49996C1.04102 2.97496 2.97435 1.04163 7.49935 1.04163H9.16602C9.50768 1.04163 9.79102 1.32496 9.79102 1.66663C9.79102 2.00829 9.50768 2.29163 9.16602 2.29163H7.49935C3.65768 2.29163 2.29102 3.65829 2.29102 7.49996V12.5C2.29102 16.3416 3.65768 17.7083 7.49935 17.7083H12.4993C16.341 17.7083 17.7077 16.3416 17.7077 12.5V10.8333C17.7077 10.4916 17.991 10.2083 18.3327 10.2083C18.6743 10.2083 18.9577 10.4916 18.9577 10.8333V12.5C18.9577 17.025 17.0243 18.9583 12.4993 18.9583Z" fill="#FFFFFF"/>
</svg>
