<svg width="16" height="16" viewBox="0 0 16 16" fill="none" xmlns="http://www.w3.org/2000/svg">
<path d="M6.96143 8C6.96143 7.17157 7.633 6.5 8.46143 6.5C9.28985 6.5 9.96143 7.17157 9.96143 8C9.96143 8.82843 9.28985 9.5 8.46143 9.5C7.633 9.5 6.96143 8.82843 6.96143 8Z" fill="#E7E9EC"/>
<path fill-rule="evenodd" clip-rule="evenodd" d="M15.4614 7.99998C15.9256 7.8143 15.9255 7.81409 15.9254 7.81385L15.9246 7.81182L15.9229 7.80752L15.9171 7.79356C15.9123 7.78192 15.9054 7.76564 15.8965 7.74504C15.8786 7.70385 15.8525 7.64533 15.8179 7.57195C15.7488 7.42526 15.6454 7.21871 15.5058 6.97224C15.227 6.48029 14.8004 5.82375 14.208 5.16552C13.0225 3.84827 11.1473 2.5 8.46135 2.5C5.77536 2.5 3.90023 3.84827 2.71471 5.16552C2.1223 5.82375 1.69575 6.48029 1.41698 6.97224C1.27731 7.21872 1.17396 7.42526 1.10481 7.57195C1.07021 7.64533 1.04412 7.70386 1.02627 7.74505C1.01734 7.76564 1.01048 7.78192 1.00563 7.79356L0.999875 7.80752L0.998127 7.81182L0.997535 7.81329C0.997441 7.81353 0.997129 7.81431 1.46137 8L0.997129 7.81431L0.922852 8L0.997129 8.18569L1.46137 8C0.997129 8.18569 0.997035 8.18546 0.997129 8.18569L0.997535 8.18671L0.998127 8.18818L0.999875 8.19248L1.00563 8.20644C1.01048 8.21808 1.01734 8.23436 1.02627 8.25495C1.04412 8.29614 1.07021 8.35467 1.10481 8.42805C1.17396 8.57474 1.27731 8.78128 1.41698 9.02776C1.69575 9.51971 2.1223 10.1762 2.71471 10.8345C3.90023 12.1517 5.77536 13.5 8.46135 13.5C11.1473 13.5 13.0225 12.1517 14.208 10.8345C14.8004 10.1762 15.227 9.51971 15.5058 9.02776C15.6454 8.78129 15.7488 8.57474 15.8179 8.42805C15.8525 8.35467 15.8786 8.29615 15.8965 8.25496C15.9054 8.23436 15.9123 8.21808 15.9171 8.20644L15.9229 8.19248L15.9246 8.18818L15.9252 8.18671C15.9253 8.18647 15.9256 8.18566 15.4614 7.99998L15.9256 8.1857L15.9999 8L15.9254 7.81385L15.4614 7.99998ZM8.46143 5.5C7.08071 5.5 5.96143 6.61929 5.96143 8C5.96143 9.38071 7.08071 10.5 8.46143 10.5C9.84214 10.5 10.9614 9.38071 10.9614 8C10.9614 6.61929 9.84214 5.5 8.46143 5.5Z" fill="#E7E9EC"/>
</svg>
