<svg width="24" height="24" viewBox="0 0 24 24" fill="none" xmlns="http://www.w3.org/2000/svg">
<path d="M15.24 22.75H8.76001C6.87001 22.75 5.49001 21.96 4.96001 20.6C4.41001 19.18 4.92001 17.42 6.24001 16.23L10.88 12L6.24001 7.77C4.92001 6.58 4.41001 4.82 4.96001 3.4C5.49001 2.03 6.87001 1.25 8.76001 1.25H15.24C17.13 1.25 18.51 2.04 19.04 3.4C19.59 4.82 19.08 6.58 17.76 7.77L13.12 12L17.77 16.23C19.08 17.42 19.6 19.18 19.05 20.6C18.51 21.96 17.13 22.75 15.24 22.75ZM12 13.01L7.25001 17.33C6.41001 18.1 6.04001 19.22 6.36001 20.05C6.66001 20.82 7.51001 21.25 8.76001 21.25H15.24C16.49 21.25 17.34 20.83 17.64 20.05C17.96 19.22 17.6 18.1 16.75 17.33L12 13.01ZM8.76001 2.75C7.51001 2.75 6.66001 3.17 6.36001 3.95C6.04001 4.78 6.40001 5.9 7.25001 6.67L12 10.99L16.75 6.67C17.59 5.9 17.96 4.78 17.64 3.95C17.34 3.18 16.49 2.75 15.24 2.75H8.76001Z" fill="#292D32"/>
</svg>
