<svg width="20" height="20" viewBox="0 0 20 20" fill="none" xmlns="http://www.w3.org/2000/svg">
<path d="M11.4999 9.12495C11.3415 9.12495 11.1832 9.06662 11.0582 8.94162C10.8165 8.69995 10.8165 8.29995 11.0582 8.05828L17.8915 1.22495C18.1332 0.983285 18.5332 0.983285 18.7749 1.22495C19.0165 1.46662 19.0165 1.86662 18.7749 2.10828L11.9415 8.94162C11.8249 9.05828 11.6665 9.12495 11.4999 9.12495Z" fill="#FFFFFF"/>
<path d="M14.859 9.79172H10.834C10.4923 9.79172 10.209 9.50839 10.209 9.16672V5.14172C10.209 4.80006 10.4923 4.51672 10.834 4.51672C11.1757 4.51672 11.459 4.80006 11.459 5.14172V8.54172H14.859C15.2007 8.54172 15.484 8.82506 15.484 9.16672C15.484 9.50839 15.2007 9.79172 14.859 9.79172Z" fill="#FFFFFF"/>
<path d="M12.4993 18.9583H7.49935C2.97435 18.9583 1.04102 17.025 1.04102 12.5V7.49996C1.04102 2.97496 2.97435 1.04163 7.49935 1.04163H9.16602C9.50768 1.04163 9.79102 1.32496 9.79102 1.66663C9.79102 2.00829 9.50768 2.29163 9.16602 2.29163H7.49935C3.65768 2.29163 2.29102 3.65829 2.29102 7.49996V12.5C2.29102 16.3416 3.65768 17.7083 7.49935 17.7083H12.4993C16.341 17.7083 17.7077 16.3416 17.7077 12.5V10.8333C17.7077 10.4916 17.991 10.2083 18.3327 10.2083C18.6743 10.2083 18.9577 10.4916 18.9577 10.8333V12.5C18.9577 17.025 17.0243 18.9583 12.4993 18.9583Z" fill="#FFFFFF"/>
</svg>
