<svg width="20" height="21" viewBox="0 0 20 21" fill="none" xmlns="http://www.w3.org/2000/svg">
<path d="M14.167 18.2084H5.83366C2.79199 18.2084 1.04199 16.4584 1.04199 13.4167V7.58342C1.04199 4.54175 2.79199 2.79175 5.83366 2.79175H14.167C17.2087 2.79175 18.9587 4.54175 18.9587 7.58342V13.4167C18.9587 16.4584 17.2087 18.2084 14.167 18.2084ZM5.83366 4.04175C3.45033 4.04175 2.29199 5.20008 2.29199 7.58342V13.4167C2.29199 15.8001 3.45033 16.9584 5.83366 16.9584H14.167C16.5503 16.9584 17.7087 15.8001 17.7087 13.4167V7.58342C17.7087 5.20008 16.5503 4.04175 14.167 4.04175H5.83366Z" fill="#292D32"/>
<path d="M9.99998 11.225C9.29998 11.225 8.59165 11.0083 8.04998 10.5666L5.44164 8.48331C5.17498 8.26664 5.12498 7.87497 5.34165 7.60831C5.55831 7.34164 5.94998 7.29164 6.21665 7.50831L8.82497 9.59164C9.45831 10.1 10.5333 10.1 11.1666 9.59164L13.775 7.50831C14.0416 7.29164 14.4416 7.33331 14.65 7.60831C14.8666 7.87497 14.825 8.27498 14.55 8.48331L11.9416 10.5666C11.4083 11.0083 10.7 11.225 9.99998 11.225Z" fill="#292D32"/>
</svg>
